<svg width="56" height="63" viewBox="0 0 56 63" fill="none" xmlns="http://www.w3.org/2000/svg">
<path d="M5.46436 56.4397L0.434265 0H55.725L50.6882 56.4307L28.0461 62.7083L5.46436 56.4397Z" fill="#8FB7CE"/>
<path d="M28.0797 57.9111L46.377 52.8384L50.6815 4.61578H28.0797V57.9111Z" fill="#98C1D9"/>
<path d="M28.0797 25.0632H37.2395L37.8711 17.9749H28.0797V11.0523H28.1043H45.4364L45.2707 12.9089L43.5708 31.9857H28.0797V25.0632Z" fill="white"/>
<path d="M28.1222 43.0403L28.0908 43.0492L20.3822 40.9664L19.8895 35.4458H16.1427H12.9401L13.9098 46.3145L28.0886 50.2517L28.1222 50.2427V43.0403Z" fill="#EBEBEB"/>
<path d="M36.6505 31.6923L35.8174 40.962L28.0976 43.0448V50.2473L42.2875 46.3145L42.3928 45.1455L43.5955 31.6923H36.6505Z" fill="white"/>
<path d="M28.1043 11.0523V15.3523V17.957V17.9749H11.406H11.3836L11.2447 16.4184L10.9289 12.9089L10.7632 11.0523H28.1043Z" fill="#EBEBEB"/>
<path d="M28.0797 25.0632V29.3632V31.9678V31.9857H20.4897H20.4673L20.3285 30.4292L20.0149 26.9198L19.8492 25.0632H28.0797Z" fill="#EBEBEB"/>
</svg>
