<svg width="64" height="64" viewBox="0 0 64 64" fill="none" xmlns="http://www.w3.org/2000/svg">
<path d="M23.68 2.56C17.6864 2.56 12.8 7.44642 12.8 13.44C12.8 17.6644 15.2959 21.2389 18.8275 23.04C15.2959 24.8411 12.8 28.4156 12.8 32.64C12.8 36.8644 15.2959 40.4389 18.8275 42.24C15.2959 44.0411 12.8 47.6156 12.8 51.84C12.8 57.8336 17.6864 62.72 23.68 62.72C29.6736 62.72 34.56 57.8336 34.56 51.84V42.24V37.96C36.2769 41.2182 39.593 43.52 43.52 43.52C49.1602 43.52 53.76 38.9202 53.76 33.28C53.76 28.6442 50.5935 24.8687 46.355 23.615C50.6285 22.1462 53.76 18.2019 53.76 13.44C53.76 7.44642 48.8736 2.56 42.88 2.56H33.28H23.68ZM23.68 5.12H32V21.76H23.68C19.07 21.76 15.36 18.0499 15.36 13.44C15.36 8.83005 19.07 5.12 23.68 5.12ZM34.56 5.12H42.88C47.4899 5.12 51.2 8.83005 51.2 13.44C51.2 18.0499 47.4899 21.76 42.88 21.76H34.56V5.12ZM23.68 24.32H32V40.96H23.68C19.07 40.96 15.36 37.2499 15.36 32.64C15.36 28.0301 19.07 24.32 23.68 24.32ZM34.56 24.32H38.84C37.0033 25.2879 35.5279 26.7633 34.56 28.6V24.32ZM43.52 25.6C47.7767 25.6 51.2 29.0233 51.2 33.28C51.2 37.5367 47.7767 40.96 43.52 40.96C39.2633 40.96 35.84 37.5367 35.84 33.28C35.84 29.0233 39.2633 25.6 43.52 25.6ZM23.68 43.52H32V51.84C32 56.4499 28.2899 60.16 23.68 60.16C19.07 60.16 15.36 56.4499 15.36 51.84C15.36 47.2301 19.07 43.52 23.68 43.52Z" fill="#98C1D9"/>
</svg>
