<svg width="57" height="64" viewBox="0 0 57 64" fill="none" xmlns="http://www.w3.org/2000/svg">
<path d="M5.136 57.6023L0 0H56.4343L51.2914 57.5931L28.1829 64L5.136 57.6023Z" fill="#8FB7CE"/>
<path d="M28.2171 59.104L46.8914 53.9269L51.2846 4.71088H28.2171V59.104Z" fill="#98C1D9"/>
<path d="M28.2171 26.0731H18.8686L18.224 18.8389H28.2171V11.7737H28.192H10.5029L10.672 13.6709L12.4069 33.1383H28.2171V26.0731Z" fill="#EBEBEB"/>
<path d="M28.2171 44.4206L28.1851 44.4297L20.3177 42.3063L19.8148 36.672H15.9908H12.7223L13.712 47.7623L28.1851 51.7806L28.2171 51.7715V44.4206Z" fill="#EBEBEB"/>
<path d="M28.192 26.0732V33.1383H36.8914L36.0731 42.3018L28.192 44.4275V51.7783L42.6766 47.7623L42.7817 46.5692L44.4411 27.9703L44.6148 26.0732H42.7108H28.192Z" fill="white"/>
<path d="M28.192 11.7737V16.1623V18.8229V18.8389H45.2343H45.2571L45.3988 17.2526L45.7211 13.6709L45.8903 11.7737H28.192Z" fill="white"/>
</svg>
