<svg width="68" height="64" viewBox="0 0 68 64" fill="none" xmlns="http://www.w3.org/2000/svg">
<path d="M7.112 5.68997V59.832H62.172V5.68997H7.112ZM57.792 55.526H11.49V9.99597H57.792V55.526Z" fill="#98C1D9"/>
<path d="M33.11 20.884C31.724 19.686 29.658 19.006 26.764 19.006C23.898 19.006 20.418 19.098 20.418 19.098V41.304H25.07V34.168C25.07 34.168 25.884 34.158 26.764 34.122C29.95 33.988 31.816 33.024 33.418 31.394C34.65 30.132 35.328 28.334 35.328 26.14C35.328 23.946 34.434 22.016 33.11 20.884ZM26.64 30.23C25.89 30.238 25.574 30.262 25.068 30.214V22.546C25.068 22.546 26.054 22.512 27.01 22.546C29.406 22.634 30.676 24.326 30.676 26.388C30.676 28.684 29.136 30.2 26.64 30.23ZM44.41 30.91C42.4 30.198 41.762 29.792 41.762 29.012C41.762 28.166 42.466 27.658 43.706 27.658C45.112 27.658 47.24 28.566 47.978 28.974V25.232C46.974 24.724 45.448 24.1 43.538 24.1C39.484 24.1 36.87 26.438 36.87 29.556C36.836 31.486 38.142 32.866 41.528 34.018C43.438 34.662 43.94 35.552 43.94 36.4C43.94 37.248 43.304 37.79 41.762 37.79C40.254 37.79 38.042 36.928 37.104 36.354V40.048C38.344 40.724 40.14 41.366 41.762 41.416C46.488 41.564 48.864 39.112 48.864 36.028C48.83 33.588 47.524 31.996 44.408 30.912L44.41 30.91Z" fill="#98C1D9"/>
</svg>
